<svg width="70" height="70" viewBox="0 0 70 70" fill="none" xmlns="http://www.w3.org/2000/svg">
<circle cx="35" cy="35" r="35" fill="#DFEDFF"/>
<path d="M28.5986 31.3947H19.6183C19.6183 40.1184 28.0855 39.6052 28.0855 39.6052C28.0855 39.6052 36.8091 40.0349 36.8091 31.3947C36.8091 28.1767 35.7853 25.9506 34.4019 24.4671M28.5986 31.3947V21.9013C30.1518 21.8528 32.5865 22.5204 34.4019 24.4671M28.5986 31.3947L34.4019 24.4671" stroke="#0063DD" stroke-width="1.81395"/>
<path d="M22.4407 41.9145V52.6908H52.4605V23.4408M52.4605 23.4408L45.7894 17.0263M52.4605 23.4408H45.7894V17.0263M45.7894 17.0263H22.4407V18.4375V20.1053" stroke="#0063DD" stroke-width="1.81395" stroke-linecap="round"/>
<path d="M40.1447 27.0329H48.8683M40.1447 30.625H48.8683M40.1447 34.2171H48.8683" stroke="#0063DD" stroke-width="1.81395" stroke-linecap="round"/>
<path d="M26.0329 19.8488V28.829H16.5395C16.5395 24.2105 19.3618 22.1579 19.3618 22.1579C19.3618 22.1579 21.9276 19.8488 26.0329 19.8488Z" stroke="#0063DD" stroke-width="1.81395"/>
<line x1="29.2467" y1="48.7519" x2="34.8914" y2="42.594" stroke="#0063DD" stroke-width="1.02632"/>
<line x1="35.1032" y1="42.5625" x2="41.2611" y2="48.2072" stroke="#0063DD" stroke-width="1.02632"/>
<line x1="47.4484" y1="41.2374" x2="40.7773" y2="48.4216" stroke="#0063DD" stroke-width="1.02632"/>
<circle cx="29.3684" cy="48.3289" r="2.30921" fill="#0F7BFF"/>
<circle cx="35.0131" cy="42.6842" r="2.30921" fill="#0F7BFF"/>
<circle cx="40.6578" cy="48.3289" r="2.30921" fill="#0F7BFF"/>
<circle cx="47.3289" cy="41.1447" r="2.30921" fill="#0F7BFF"/>
</svg>
