<svg width="30" height="30" viewBox="0 0 30 30" fill="none" xmlns="http://www.w3.org/2000/svg">
<path d="M27.1875 7.45021C26.291 7.83693 25.3154 8.11525 24.3105 8.22365C25.3538 7.60383 26.1351 6.62462 26.5078 5.46974C25.5288 6.05213 24.4563 6.46051 23.3379 6.67677C22.8704 6.17704 22.3051 5.77894 21.6771 5.50726C21.049 5.23558 20.3718 5.09616 19.6875 5.09767C16.9189 5.09767 14.6924 7.34181 14.6924 10.0957C14.6924 10.4824 14.7393 10.8692 14.8154 11.2412C10.6699 11.0244 6.97266 9.04396 4.51465 6.01173C4.06677 6.77672 3.83207 7.64774 3.83496 8.53419C3.83496 10.2686 4.7168 11.7979 6.06152 12.6973C5.26906 12.6661 4.49514 12.4482 3.80273 12.0615V12.1231C3.80273 14.5518 5.51953 16.5645 7.80762 17.0274C7.378 17.139 6.93606 17.196 6.49219 17.1973C6.16699 17.1973 5.85937 17.1651 5.54883 17.1211C6.18164 19.1016 8.02441 20.5401 10.2187 20.5869C8.50195 21.9317 6.35156 22.7227 4.0166 22.7227C3.59766 22.7227 3.21094 22.708 2.80957 22.6611C5.02441 24.082 7.65234 24.9024 10.4824 24.9024C19.6699 24.9024 24.6973 17.291 24.6973 10.6846C24.6973 10.4678 24.6973 10.251 24.6826 10.0342C25.6553 9.32228 26.5078 8.44044 27.1875 7.45021Z" fill="white"/>
</svg>
